<svg width="40" height="40" viewBox="0 0 40 40" fill="none" xmlns="http://www.w3.org/2000/svg">
<path d="M24.5073 7.6075C24.6573 7.67413 24.7928 7.76967 24.9059 7.88865C25.019 8.00764 25.1076 8.14774 25.1666 8.30097C25.2255 8.45419 25.2537 8.61753 25.2496 8.78165C25.2454 8.94577 25.209 9.10747 25.1423 9.2575L15.1423 31.7575C15.0077 32.0605 14.7582 32.2976 14.4488 32.4167C14.1394 32.5358 13.7953 32.5271 13.4923 32.3925C13.1893 32.2579 12.9521 32.0084 12.8331 31.699C12.714 31.3896 12.7227 31.0455 12.8573 30.7425L22.8573 8.2425C22.9239 8.09245 23.0195 7.957 23.1384 7.84388C23.2574 7.73076 23.3975 7.64219 23.5508 7.58322C23.704 7.52425 23.8673 7.49605 24.0314 7.50021C24.1956 7.50438 24.3573 7.54084 24.5073 7.6075ZM10.8323 13.44C10.9548 13.5493 11.0545 13.6817 11.1258 13.8296C11.1971 13.9774 11.2386 14.1379 11.2478 14.3018C11.2571 14.4657 11.234 14.6298 11.1799 14.7848C11.1258 14.9398 11.0416 15.0825 10.9323 15.205L6.67479 20L10.9373 24.795C11.0463 24.9178 11.13 25.0608 11.1837 25.216C11.2375 25.3711 11.2601 25.5354 11.2503 25.6992C11.2406 25.8631 11.1986 26.0235 11.1269 26.1712C11.0552 26.3189 10.9551 26.451 10.8323 26.56C10.7095 26.669 10.5664 26.7527 10.4113 26.8065C10.2561 26.8602 10.0919 26.8828 9.92804 26.873C9.76415 26.8633 9.60378 26.8214 9.45609 26.7496C9.3084 26.6779 9.17629 26.5778 9.06729 26.455L4.06729 20.83C3.86415 20.6012 3.75195 20.3059 3.75195 20C3.75195 19.6941 3.86415 19.3988 4.06729 19.17L9.06729 13.545C9.17627 13.4222 9.30837 13.322 9.45606 13.2503C9.60375 13.1786 9.76413 13.1366 9.92803 13.1269C10.0919 13.1171 10.2562 13.1397 10.4113 13.1935C10.5665 13.2472 10.7095 13.331 10.8323 13.44ZM29.1698 13.44C29.2926 13.331 29.4356 13.2472 29.5908 13.1935C29.7459 13.1397 29.9101 13.1171 30.074 13.1269C30.2379 13.1366 30.3983 13.1786 30.546 13.2503C30.6937 13.322 30.8258 13.4222 30.9348 13.545L35.9348 19.17C36.1379 19.3988 36.2501 19.6941 36.2501 20C36.2501 20.3059 36.1379 20.6012 35.9348 20.83L30.9348 26.455C30.8258 26.5778 30.6937 26.6779 30.546 26.7496C30.3983 26.8214 30.2379 26.8633 30.074 26.873C29.9101 26.8828 29.7459 26.8602 29.5908 26.8065C29.4356 26.7527 29.2926 26.669 29.1698 26.56C29.047 26.451 28.9469 26.3189 28.8752 26.1712C28.8034 26.0235 28.7615 25.8631 28.7517 25.6992C28.742 25.5354 28.7646 25.3711 28.8183 25.216C28.872 25.0608 28.9558 24.9178 29.0648 24.795L33.3273 20L29.0648 15.205C28.9558 15.0822 28.872 14.9392 28.8183 14.784C28.7645 14.6289 28.7419 14.4647 28.7516 14.3007C28.7614 14.1368 28.8033 13.9765 28.8751 13.8288C28.9468 13.6811 29.047 13.549 29.1698 13.44Z" fill="#FF7E35"/>
</svg>
